<mxfile host="app.diagrams.net" modified="2021-07-16T09:36:38.623Z" agent="5.0 (Windows NT 10.0; WOW64) AppleWebKit/537.36 (KHTML, like Gecko) Chrome/69.0.3947.100 Safari/537.36" etag="Xbq09KY8fuEP-LeZel3L" version="14.7.9" type="github">
  <diagram id="fB6I4MMEKbH8F9MEy0cq" name="Page-1">
    <mxGraphModel dx="1826" dy="600" grid="1" gridSize="10" guides="1" tooltips="1" connect="1" arrows="1" fold="1" page="1" pageScale="1" pageWidth="827" pageHeight="1169" math="0" shadow="0">
      <root>
        <mxCell id="0" />
        <mxCell id="1" parent="0" />
        <mxCell id="bgx9pGF-0ckk_dmSc3HT-4" value="" style="edgeStyle=orthogonalEdgeStyle;rounded=0;orthogonalLoop=1;jettySize=auto;html=1;" edge="1" parent="1" source="bgx9pGF-0ckk_dmSc3HT-2" target="bgx9pGF-0ckk_dmSc3HT-3">
          <mxGeometry relative="1" as="geometry" />
        </mxCell>
        <mxCell id="bgx9pGF-0ckk_dmSc3HT-2" value="" style="shape=cube;whiteSpace=wrap;html=1;boundedLbl=1;backgroundOutline=1;darkOpacity=0.05;darkOpacity2=0.1;direction=east;" vertex="1" parent="1">
          <mxGeometry x="90" y="350" width="30" height="190" as="geometry" />
        </mxCell>
        <mxCell id="bgx9pGF-0ckk_dmSc3HT-6" value="" style="edgeStyle=orthogonalEdgeStyle;rounded=0;orthogonalLoop=1;jettySize=auto;html=1;" edge="1" parent="1" source="bgx9pGF-0ckk_dmSc3HT-3" target="bgx9pGF-0ckk_dmSc3HT-5">
          <mxGeometry relative="1" as="geometry" />
        </mxCell>
        <mxCell id="bgx9pGF-0ckk_dmSc3HT-3" value="" style="shape=cube;whiteSpace=wrap;html=1;boundedLbl=1;backgroundOutline=1;darkOpacity=0.05;darkOpacity2=0.1;direction=east;" vertex="1" parent="1">
          <mxGeometry x="144" y="364.99" width="40" height="160" as="geometry" />
        </mxCell>
        <mxCell id="bgx9pGF-0ckk_dmSc3HT-8" value="" style="edgeStyle=orthogonalEdgeStyle;rounded=0;orthogonalLoop=1;jettySize=auto;html=1;" edge="1" parent="1" source="bgx9pGF-0ckk_dmSc3HT-5" target="bgx9pGF-0ckk_dmSc3HT-7">
          <mxGeometry relative="1" as="geometry" />
        </mxCell>
        <mxCell id="bgx9pGF-0ckk_dmSc3HT-107" style="edgeStyle=orthogonalEdgeStyle;rounded=0;orthogonalLoop=1;jettySize=auto;html=1;exitX=0;exitY=0;exitDx=10;exitDy=0;exitPerimeter=0;entryX=0.25;entryY=1;entryDx=0;entryDy=0;" edge="1" parent="1" source="bgx9pGF-0ckk_dmSc3HT-5" target="bgx9pGF-0ckk_dmSc3HT-104">
          <mxGeometry relative="1" as="geometry" />
        </mxCell>
        <mxCell id="bgx9pGF-0ckk_dmSc3HT-5" value="" style="shape=cube;whiteSpace=wrap;html=1;boundedLbl=1;backgroundOutline=1;darkOpacity=0.05;darkOpacity2=0.1;direction=east;" vertex="1" parent="1">
          <mxGeometry x="210" y="377.5" width="40" height="135" as="geometry" />
        </mxCell>
        <mxCell id="bgx9pGF-0ckk_dmSc3HT-10" value="" style="edgeStyle=orthogonalEdgeStyle;rounded=0;orthogonalLoop=1;jettySize=auto;html=1;" edge="1" parent="1" source="bgx9pGF-0ckk_dmSc3HT-7" target="bgx9pGF-0ckk_dmSc3HT-9">
          <mxGeometry relative="1" as="geometry" />
        </mxCell>
        <mxCell id="bgx9pGF-0ckk_dmSc3HT-106" style="edgeStyle=orthogonalEdgeStyle;rounded=0;orthogonalLoop=1;jettySize=auto;html=1;exitX=0;exitY=0;exitDx=15;exitDy=0;exitPerimeter=0;" edge="1" parent="1" source="bgx9pGF-0ckk_dmSc3HT-7">
          <mxGeometry relative="1" as="geometry">
            <mxPoint x="295" y="370" as="targetPoint" />
          </mxGeometry>
        </mxCell>
        <mxCell id="bgx9pGF-0ckk_dmSc3HT-7" value="" style="shape=cube;whiteSpace=wrap;html=1;boundedLbl=1;backgroundOutline=1;darkOpacity=0.05;darkOpacity2=0.1;direction=east;" vertex="1" parent="1">
          <mxGeometry x="280" y="389.38" width="50" height="111.25" as="geometry" />
        </mxCell>
        <mxCell id="bgx9pGF-0ckk_dmSc3HT-105" style="edgeStyle=orthogonalEdgeStyle;rounded=0;orthogonalLoop=1;jettySize=auto;html=1;exitX=0;exitY=0;exitDx=15;exitDy=0;exitPerimeter=0;entryX=0.25;entryY=1;entryDx=0;entryDy=0;" edge="1" parent="1" source="bgx9pGF-0ckk_dmSc3HT-9" target="bgx9pGF-0ckk_dmSc3HT-13">
          <mxGeometry relative="1" as="geometry" />
        </mxCell>
        <mxCell id="bgx9pGF-0ckk_dmSc3HT-9" value="" style="shape=cube;whiteSpace=wrap;html=1;boundedLbl=1;backgroundOutline=1;darkOpacity=0.05;darkOpacity2=0.1;direction=east;" vertex="1" parent="1">
          <mxGeometry x="350" y="399.7" width="50" height="90.62" as="geometry" />
        </mxCell>
        <mxCell id="bgx9pGF-0ckk_dmSc3HT-69" style="edgeStyle=orthogonalEdgeStyle;rounded=0;orthogonalLoop=1;jettySize=auto;html=1;exitX=1;exitY=0.5;exitDx=0;exitDy=0;entryX=0;entryY=0;entryDx=55;entryDy=0;entryPerimeter=0;" edge="1" parent="1" source="bgx9pGF-0ckk_dmSc3HT-13" target="bgx9pGF-0ckk_dmSc3HT-65">
          <mxGeometry relative="1" as="geometry" />
        </mxCell>
        <mxCell id="bgx9pGF-0ckk_dmSc3HT-126" style="edgeStyle=orthogonalEdgeStyle;rounded=0;orthogonalLoop=1;jettySize=auto;html=1;exitX=0.5;exitY=0;exitDx=0;exitDy=0;entryX=0.5;entryY=0;entryDx=0;entryDy=0;" edge="1" parent="1" source="bgx9pGF-0ckk_dmSc3HT-13" target="bgx9pGF-0ckk_dmSc3HT-96">
          <mxGeometry relative="1" as="geometry">
            <Array as="points">
              <mxPoint x="376" y="320" />
              <mxPoint x="750" y="320" />
            </Array>
          </mxGeometry>
        </mxCell>
        <mxCell id="bgx9pGF-0ckk_dmSc3HT-13" value="DASPP" style="rounded=0;whiteSpace=wrap;html=1;" vertex="1" parent="1">
          <mxGeometry x="350" y="329.99" width="52" height="35" as="geometry" />
        </mxCell>
        <mxCell id="bgx9pGF-0ckk_dmSc3HT-51" style="edgeStyle=orthogonalEdgeStyle;rounded=0;orthogonalLoop=1;jettySize=auto;html=1;exitX=1;exitY=0.5;exitDx=0;exitDy=0;" edge="1" parent="1" source="bgx9pGF-0ckk_dmSc3HT-31">
          <mxGeometry relative="1" as="geometry">
            <mxPoint x="610" y="190" as="targetPoint" />
            <Array as="points">
              <mxPoint x="435" y="190" />
            </Array>
          </mxGeometry>
        </mxCell>
        <mxCell id="bgx9pGF-0ckk_dmSc3HT-31" value="DASPP" style="rounded=0;whiteSpace=wrap;html=1;" vertex="1" parent="1">
          <mxGeometry x="385" y="163" width="50" height="39.69" as="geometry" />
        </mxCell>
        <mxCell id="bgx9pGF-0ckk_dmSc3HT-34" value="" style="edgeStyle=orthogonalEdgeStyle;rounded=0;orthogonalLoop=1;jettySize=auto;html=1;" edge="1" parent="1" source="bgx9pGF-0ckk_dmSc3HT-32" target="bgx9pGF-0ckk_dmSc3HT-33">
          <mxGeometry relative="1" as="geometry" />
        </mxCell>
        <mxCell id="bgx9pGF-0ckk_dmSc3HT-32" value="" style="rounded=0;whiteSpace=wrap;html=1;" vertex="1" parent="1">
          <mxGeometry x="40" y="70" width="60" height="50" as="geometry" />
        </mxCell>
        <mxCell id="bgx9pGF-0ckk_dmSc3HT-36" value="" style="edgeStyle=orthogonalEdgeStyle;rounded=0;orthogonalLoop=1;jettySize=auto;html=1;" edge="1" parent="1" source="bgx9pGF-0ckk_dmSc3HT-33" target="bgx9pGF-0ckk_dmSc3HT-35">
          <mxGeometry relative="1" as="geometry" />
        </mxCell>
        <mxCell id="bgx9pGF-0ckk_dmSc3HT-33" value="" style="rounded=0;whiteSpace=wrap;html=1;" vertex="1" parent="1">
          <mxGeometry x="150" y="70" width="60" height="50" as="geometry" />
        </mxCell>
        <mxCell id="bgx9pGF-0ckk_dmSc3HT-40" value="" style="edgeStyle=orthogonalEdgeStyle;rounded=0;orthogonalLoop=1;jettySize=auto;html=1;" edge="1" parent="1" source="bgx9pGF-0ckk_dmSc3HT-35" target="bgx9pGF-0ckk_dmSc3HT-39">
          <mxGeometry relative="1" as="geometry" />
        </mxCell>
        <mxCell id="bgx9pGF-0ckk_dmSc3HT-47" style="edgeStyle=orthogonalEdgeStyle;rounded=0;orthogonalLoop=1;jettySize=auto;html=1;exitX=0.5;exitY=1;exitDx=0;exitDy=0;entryX=0.5;entryY=0;entryDx=0;entryDy=0;" edge="1" parent="1" source="bgx9pGF-0ckk_dmSc3HT-35" target="bgx9pGF-0ckk_dmSc3HT-44">
          <mxGeometry relative="1" as="geometry" />
        </mxCell>
        <mxCell id="bgx9pGF-0ckk_dmSc3HT-35" value="" style="rounded=0;whiteSpace=wrap;html=1;" vertex="1" parent="1">
          <mxGeometry x="270" y="70" width="60" height="50" as="geometry" />
        </mxCell>
        <mxCell id="bgx9pGF-0ckk_dmSc3HT-42" value="" style="edgeStyle=orthogonalEdgeStyle;rounded=0;orthogonalLoop=1;jettySize=auto;html=1;" edge="1" parent="1" source="bgx9pGF-0ckk_dmSc3HT-39" target="bgx9pGF-0ckk_dmSc3HT-41">
          <mxGeometry relative="1" as="geometry" />
        </mxCell>
        <mxCell id="bgx9pGF-0ckk_dmSc3HT-48" style="edgeStyle=orthogonalEdgeStyle;rounded=0;orthogonalLoop=1;jettySize=auto;html=1;exitX=0.5;exitY=1;exitDx=0;exitDy=0;entryX=0.5;entryY=0;entryDx=0;entryDy=0;" edge="1" parent="1" source="bgx9pGF-0ckk_dmSc3HT-39" target="bgx9pGF-0ckk_dmSc3HT-31">
          <mxGeometry relative="1" as="geometry" />
        </mxCell>
        <mxCell id="bgx9pGF-0ckk_dmSc3HT-39" value="" style="rounded=0;whiteSpace=wrap;html=1;" vertex="1" parent="1">
          <mxGeometry x="380" y="70" width="60" height="50" as="geometry" />
        </mxCell>
        <mxCell id="bgx9pGF-0ckk_dmSc3HT-49" style="edgeStyle=orthogonalEdgeStyle;rounded=0;orthogonalLoop=1;jettySize=auto;html=1;exitX=0.5;exitY=1;exitDx=0;exitDy=0;" edge="1" parent="1" source="bgx9pGF-0ckk_dmSc3HT-41">
          <mxGeometry relative="1" as="geometry">
            <mxPoint x="520" y="140" as="targetPoint" />
          </mxGeometry>
        </mxCell>
        <mxCell id="bgx9pGF-0ckk_dmSc3HT-41" value="" style="rounded=0;whiteSpace=wrap;html=1;" vertex="1" parent="1">
          <mxGeometry x="490" y="70" width="60" height="50" as="geometry" />
        </mxCell>
        <mxCell id="bgx9pGF-0ckk_dmSc3HT-43" value="depth estimator" style="rounded=1;whiteSpace=wrap;html=1;" vertex="1" parent="1">
          <mxGeometry x="577" y="159" width="99" height="60" as="geometry" />
        </mxCell>
        <mxCell id="bgx9pGF-0ckk_dmSc3HT-53" style="edgeStyle=orthogonalEdgeStyle;rounded=0;orthogonalLoop=1;jettySize=auto;html=1;exitX=1;exitY=0.75;exitDx=0;exitDy=0;" edge="1" parent="1" source="bgx9pGF-0ckk_dmSc3HT-44">
          <mxGeometry relative="1" as="geometry">
            <mxPoint x="580" y="190" as="targetPoint" />
            <Array as="points">
              <mxPoint x="560" y="214" />
              <mxPoint x="560" y="190" />
            </Array>
          </mxGeometry>
        </mxCell>
        <mxCell id="bgx9pGF-0ckk_dmSc3HT-44" value="DASPP" style="rounded=0;whiteSpace=wrap;html=1;" vertex="1" parent="1">
          <mxGeometry x="275" y="184.15" width="50" height="39.69" as="geometry" />
        </mxCell>
        <mxCell id="bgx9pGF-0ckk_dmSc3HT-50" style="edgeStyle=orthogonalEdgeStyle;rounded=0;orthogonalLoop=1;jettySize=auto;html=1;exitX=1;exitY=0.5;exitDx=0;exitDy=0;" edge="1" parent="1" source="bgx9pGF-0ckk_dmSc3HT-45" target="bgx9pGF-0ckk_dmSc3HT-43">
          <mxGeometry relative="1" as="geometry">
            <Array as="points">
              <mxPoint x="560" y="158" />
              <mxPoint x="560" y="189" />
            </Array>
          </mxGeometry>
        </mxCell>
        <mxCell id="bgx9pGF-0ckk_dmSc3HT-45" value="DASPP" style="rounded=0;whiteSpace=wrap;html=1;" vertex="1" parent="1">
          <mxGeometry x="495" y="138.15" width="50" height="39.69" as="geometry" />
        </mxCell>
        <mxCell id="bgx9pGF-0ckk_dmSc3HT-70" style="edgeStyle=orthogonalEdgeStyle;rounded=0;orthogonalLoop=1;jettySize=auto;html=1;exitX=1;exitY=0.5;exitDx=0;exitDy=0;entryX=0.438;entryY=1;entryDx=0;entryDy=0;entryPerimeter=0;" edge="1" parent="1" source="bgx9pGF-0ckk_dmSc3HT-64" target="bgx9pGF-0ckk_dmSc3HT-65">
          <mxGeometry relative="1" as="geometry" />
        </mxCell>
        <mxCell id="bgx9pGF-0ckk_dmSc3HT-65" value="自适应选择注意模块" style="shape=cube;whiteSpace=wrap;html=1;boundedLbl=1;backgroundOutline=1;darkOpacity=0.05;darkOpacity2=0.1;" vertex="1" parent="1">
          <mxGeometry x="470" y="410.32" width="130" height="80" as="geometry" />
        </mxCell>
        <mxCell id="bgx9pGF-0ckk_dmSc3HT-67" style="edgeStyle=orthogonalEdgeStyle;rounded=0;orthogonalLoop=1;jettySize=auto;html=1;entryX=0;entryY=0.5;entryDx=0;entryDy=0;exitX=0.5;exitY=1;exitDx=0;exitDy=0;" edge="1" parent="1" source="bgx9pGF-0ckk_dmSc3HT-32" target="bgx9pGF-0ckk_dmSc3HT-43">
          <mxGeometry relative="1" as="geometry">
            <mxPoint x="270" y="240" as="sourcePoint" />
            <Array as="points">
              <mxPoint x="70" y="240" />
              <mxPoint x="560" y="240" />
              <mxPoint x="560" y="189" />
            </Array>
          </mxGeometry>
        </mxCell>
        <mxCell id="bgx9pGF-0ckk_dmSc3HT-101" style="edgeStyle=orthogonalEdgeStyle;rounded=0;orthogonalLoop=1;jettySize=auto;html=1;exitX=0;exitY=0;exitDx=30;exitDy=60;exitPerimeter=0;" edge="1" parent="1" source="bgx9pGF-0ckk_dmSc3HT-79">
          <mxGeometry relative="1" as="geometry">
            <mxPoint x="790" y="530" as="targetPoint" />
          </mxGeometry>
        </mxCell>
        <mxCell id="bgx9pGF-0ckk_dmSc3HT-79" value="" style="shape=cube;whiteSpace=wrap;html=1;boundedLbl=1;backgroundOutline=1;darkOpacity=0.05;darkOpacity2=0.1;direction=east;" vertex="1" parent="1">
          <mxGeometry x="684" y="470" width="30" height="100" as="geometry" />
        </mxCell>
        <mxCell id="bgx9pGF-0ckk_dmSc3HT-80" value="" style="shape=cube;whiteSpace=wrap;html=1;boundedLbl=1;backgroundOutline=1;darkOpacity=0.05;darkOpacity2=0.1;direction=east;" vertex="1" parent="1">
          <mxGeometry x="668" y="470" width="30" height="100" as="geometry" />
        </mxCell>
        <mxCell id="bgx9pGF-0ckk_dmSc3HT-81" value="" style="shape=cube;whiteSpace=wrap;html=1;boundedLbl=1;backgroundOutline=1;darkOpacity=0.05;darkOpacity2=0.1;direction=east;" vertex="1" parent="1">
          <mxGeometry x="684" y="340" width="30" height="100" as="geometry" />
        </mxCell>
        <mxCell id="bgx9pGF-0ckk_dmSc3HT-82" value="" style="shape=cube;whiteSpace=wrap;html=1;boundedLbl=1;backgroundOutline=1;darkOpacity=0.05;darkOpacity2=0.1;direction=east;" vertex="1" parent="1">
          <mxGeometry x="668" y="340" width="30" height="100" as="geometry" />
        </mxCell>
        <mxCell id="bgx9pGF-0ckk_dmSc3HT-83" value="" style="endArrow=classic;html=1;entryX=0;entryY=0.56;entryDx=0;entryDy=0;entryPerimeter=0;" edge="1" parent="1" target="bgx9pGF-0ckk_dmSc3HT-82">
          <mxGeometry width="50" height="50" relative="1" as="geometry">
            <mxPoint x="600" y="460" as="sourcePoint" />
            <mxPoint x="651.5" y="399.7" as="targetPoint" />
          </mxGeometry>
        </mxCell>
        <mxCell id="bgx9pGF-0ckk_dmSc3HT-85" value="" style="endArrow=classic;html=1;exitX=0;exitY=0;exitDx=130;exitDy=50;exitPerimeter=0;entryX=0.067;entryY=0.55;entryDx=0;entryDy=0;entryPerimeter=0;" edge="1" parent="1" source="bgx9pGF-0ckk_dmSc3HT-65" target="bgx9pGF-0ckk_dmSc3HT-80">
          <mxGeometry width="50" height="50" relative="1" as="geometry">
            <mxPoint x="490" y="470" as="sourcePoint" />
            <mxPoint x="540" y="420" as="targetPoint" />
          </mxGeometry>
        </mxCell>
        <mxCell id="bgx9pGF-0ckk_dmSc3HT-131" style="edgeStyle=orthogonalEdgeStyle;rounded=0;orthogonalLoop=1;jettySize=auto;html=1;exitX=1;exitY=0.5;exitDx=0;exitDy=0;entryX=0.5;entryY=0;entryDx=0;entryDy=0;" edge="1" parent="1" source="bgx9pGF-0ckk_dmSc3HT-92" target="bgx9pGF-0ckk_dmSc3HT-129">
          <mxGeometry relative="1" as="geometry">
            <Array as="points">
              <mxPoint x="795" y="400" />
            </Array>
          </mxGeometry>
        </mxCell>
        <mxCell id="bgx9pGF-0ckk_dmSc3HT-92" value="+" style="ellipse;whiteSpace=wrap;html=1;aspect=fixed;" vertex="1" parent="1">
          <mxGeometry x="765" y="389.38" width="20.62" height="20.62" as="geometry" />
        </mxCell>
        <mxCell id="bgx9pGF-0ckk_dmSc3HT-132" style="edgeStyle=orthogonalEdgeStyle;rounded=0;orthogonalLoop=1;jettySize=auto;html=1;exitX=1;exitY=0.5;exitDx=0;exitDy=0;entryX=0.25;entryY=0;entryDx=0;entryDy=0;" edge="1" parent="1" source="bgx9pGF-0ckk_dmSc3HT-96" target="bgx9pGF-0ckk_dmSc3HT-129">
          <mxGeometry relative="1" as="geometry" />
        </mxCell>
        <mxCell id="bgx9pGF-0ckk_dmSc3HT-96" value="+" style="ellipse;whiteSpace=wrap;html=1;aspect=fixed;" vertex="1" parent="1">
          <mxGeometry x="739.38" y="410.32" width="20.62" height="20.62" as="geometry" />
        </mxCell>
        <mxCell id="bgx9pGF-0ckk_dmSc3HT-134" style="edgeStyle=orthogonalEdgeStyle;rounded=0;orthogonalLoop=1;jettySize=auto;html=1;exitX=1;exitY=0.5;exitDx=0;exitDy=0;entryX=0.5;entryY=1;entryDx=0;entryDy=0;" edge="1" parent="1" source="bgx9pGF-0ckk_dmSc3HT-99" target="bgx9pGF-0ckk_dmSc3HT-133">
          <mxGeometry relative="1" as="geometry">
            <Array as="points">
              <mxPoint x="850" y="527" />
            </Array>
          </mxGeometry>
        </mxCell>
        <mxCell id="bgx9pGF-0ckk_dmSc3HT-99" value="+" style="ellipse;whiteSpace=wrap;html=1;aspect=fixed;" vertex="1" parent="1">
          <mxGeometry x="790.62" y="516.5" width="20.62" height="20.62" as="geometry" />
        </mxCell>
        <mxCell id="bgx9pGF-0ckk_dmSc3HT-127" style="edgeStyle=orthogonalEdgeStyle;rounded=0;orthogonalLoop=1;jettySize=auto;html=1;exitX=0.5;exitY=0;exitDx=0;exitDy=0;entryX=0.5;entryY=0;entryDx=0;entryDy=0;" edge="1" parent="1" source="bgx9pGF-0ckk_dmSc3HT-103" target="bgx9pGF-0ckk_dmSc3HT-92">
          <mxGeometry relative="1" as="geometry">
            <Array as="points">
              <mxPoint x="301" y="310" />
              <mxPoint x="775" y="310" />
            </Array>
          </mxGeometry>
        </mxCell>
        <mxCell id="bgx9pGF-0ckk_dmSc3HT-103" value="DASPP" style="rounded=0;whiteSpace=wrap;html=1;" vertex="1" parent="1">
          <mxGeometry x="275" y="329.99" width="52" height="35" as="geometry" />
        </mxCell>
        <mxCell id="bgx9pGF-0ckk_dmSc3HT-128" style="edgeStyle=orthogonalEdgeStyle;rounded=0;orthogonalLoop=1;jettySize=auto;html=1;exitX=0.5;exitY=0;exitDx=0;exitDy=0;entryX=0.5;entryY=0;entryDx=0;entryDy=0;" edge="1" parent="1" source="bgx9pGF-0ckk_dmSc3HT-104" target="bgx9pGF-0ckk_dmSc3HT-86">
          <mxGeometry relative="1" as="geometry">
            <Array as="points">
              <mxPoint x="230" y="300" />
              <mxPoint x="801" y="300" />
            </Array>
          </mxGeometry>
        </mxCell>
        <mxCell id="bgx9pGF-0ckk_dmSc3HT-104" value="DASPP" style="rounded=0;whiteSpace=wrap;html=1;" vertex="1" parent="1">
          <mxGeometry x="204" y="329.99" width="52" height="35" as="geometry" />
        </mxCell>
        <mxCell id="bgx9pGF-0ckk_dmSc3HT-111" style="edgeStyle=orthogonalEdgeStyle;rounded=0;orthogonalLoop=1;jettySize=auto;html=1;exitX=1;exitY=0.5;exitDx=0;exitDy=0;entryX=0;entryY=0.5;entryDx=0;entryDy=0;" edge="1" parent="1" source="bgx9pGF-0ckk_dmSc3HT-108" target="bgx9pGF-0ckk_dmSc3HT-64">
          <mxGeometry relative="1" as="geometry" />
        </mxCell>
        <mxCell id="bgx9pGF-0ckk_dmSc3HT-108" value="depth estimator" style="rounded=1;whiteSpace=wrap;html=1;" vertex="1" parent="1">
          <mxGeometry x="204" y="527.12" width="100" height="42.88" as="geometry" />
        </mxCell>
        <mxCell id="bgx9pGF-0ckk_dmSc3HT-112" style="edgeStyle=orthogonalEdgeStyle;rounded=0;orthogonalLoop=1;jettySize=auto;html=1;exitX=0.5;exitY=1;exitDx=0;exitDy=0;entryX=0.5;entryY=1;entryDx=0;entryDy=0;" edge="1" parent="1" source="bgx9pGF-0ckk_dmSc3HT-64" target="bgx9pGF-0ckk_dmSc3HT-99">
          <mxGeometry relative="1" as="geometry" />
        </mxCell>
        <mxCell id="bgx9pGF-0ckk_dmSc3HT-64" value="DASPP" style="rounded=0;whiteSpace=wrap;html=1;" vertex="1" parent="1">
          <mxGeometry x="350" y="531.0600000000001" width="52" height="35" as="geometry" />
        </mxCell>
        <mxCell id="bgx9pGF-0ckk_dmSc3HT-130" style="edgeStyle=orthogonalEdgeStyle;rounded=0;orthogonalLoop=1;jettySize=auto;html=1;exitX=1;exitY=0.5;exitDx=0;exitDy=0;entryX=0.75;entryY=0;entryDx=0;entryDy=0;" edge="1" parent="1" source="bgx9pGF-0ckk_dmSc3HT-86" target="bgx9pGF-0ckk_dmSc3HT-129">
          <mxGeometry relative="1" as="geometry">
            <Array as="points">
              <mxPoint x="813" y="379" />
              <mxPoint x="813" y="425" />
            </Array>
          </mxGeometry>
        </mxCell>
        <mxCell id="bgx9pGF-0ckk_dmSc3HT-86" value="+" style="ellipse;whiteSpace=wrap;html=1;aspect=fixed;" vertex="1" parent="1">
          <mxGeometry x="790.62" y="368.76" width="20.62" height="20.62" as="geometry" />
        </mxCell>
        <mxCell id="bgx9pGF-0ckk_dmSc3HT-120" value="" style="endArrow=classic;html=1;exitX=1.033;exitY=0.82;exitDx=0;exitDy=0;exitPerimeter=0;entryX=0;entryY=0.5;entryDx=0;entryDy=0;" edge="1" parent="1" source="bgx9pGF-0ckk_dmSc3HT-81" target="bgx9pGF-0ckk_dmSc3HT-96">
          <mxGeometry width="50" height="50" relative="1" as="geometry">
            <mxPoint x="800" y="420" as="sourcePoint" />
            <mxPoint x="740" y="420" as="targetPoint" />
          </mxGeometry>
        </mxCell>
        <mxCell id="bgx9pGF-0ckk_dmSc3HT-124" value="" style="endArrow=classic;html=1;exitX=0;exitY=0;exitDx=30;exitDy=60;exitPerimeter=0;entryX=0;entryY=0.5;entryDx=0;entryDy=0;" edge="1" parent="1" source="bgx9pGF-0ckk_dmSc3HT-81" target="bgx9pGF-0ckk_dmSc3HT-92">
          <mxGeometry width="50" height="50" relative="1" as="geometry">
            <mxPoint x="780" y="470" as="sourcePoint" />
            <mxPoint x="830" y="420" as="targetPoint" />
          </mxGeometry>
        </mxCell>
        <mxCell id="bgx9pGF-0ckk_dmSc3HT-125" value="" style="endArrow=classic;html=1;exitX=1.067;exitY=0.39;exitDx=0;exitDy=0;exitPerimeter=0;" edge="1" parent="1" source="bgx9pGF-0ckk_dmSc3HT-81">
          <mxGeometry width="50" height="50" relative="1" as="geometry">
            <mxPoint x="780" y="470" as="sourcePoint" />
            <mxPoint x="790" y="379" as="targetPoint" />
          </mxGeometry>
        </mxCell>
        <mxCell id="bgx9pGF-0ckk_dmSc3HT-139" style="edgeStyle=orthogonalEdgeStyle;rounded=0;orthogonalLoop=1;jettySize=auto;html=1;exitX=1;exitY=0.5;exitDx=0;exitDy=0;entryX=0.5;entryY=0;entryDx=0;entryDy=0;" edge="1" parent="1" source="bgx9pGF-0ckk_dmSc3HT-129" target="bgx9pGF-0ckk_dmSc3HT-133">
          <mxGeometry relative="1" as="geometry" />
        </mxCell>
        <mxCell id="bgx9pGF-0ckk_dmSc3HT-129" value="" style="rounded=1;whiteSpace=wrap;html=1;" vertex="1" parent="1">
          <mxGeometry x="760" y="460.63" width="70" height="40" as="geometry" />
        </mxCell>
        <mxCell id="bgx9pGF-0ckk_dmSc3HT-140" style="edgeStyle=orthogonalEdgeStyle;rounded=0;orthogonalLoop=1;jettySize=auto;html=1;exitX=1;exitY=0.5;exitDx=0;exitDy=0;" edge="1" parent="1" source="bgx9pGF-0ckk_dmSc3HT-133">
          <mxGeometry relative="1" as="geometry">
            <mxPoint x="890" y="506" as="targetPoint" />
          </mxGeometry>
        </mxCell>
        <mxCell id="bgx9pGF-0ckk_dmSc3HT-133" value="*" style="ellipse;whiteSpace=wrap;html=1;aspect=fixed;" vertex="1" parent="1">
          <mxGeometry x="840" y="495.88" width="20.62" height="20.62" as="geometry" />
        </mxCell>
        <mxCell id="bgx9pGF-0ckk_dmSc3HT-141" value="RGB" style="text;html=1;resizable=0;autosize=1;align=center;verticalAlign=middle;points=[];fillColor=none;strokeColor=none;rounded=0;" vertex="1" parent="1">
          <mxGeometry x="628" y="364.99" width="40" height="20" as="geometry" />
        </mxCell>
        <mxCell id="bgx9pGF-0ckk_dmSc3HT-142" value="Depth" style="text;html=1;resizable=0;autosize=1;align=center;verticalAlign=middle;points=[];fillColor=none;strokeColor=none;rounded=0;" vertex="1" parent="1">
          <mxGeometry x="615" y="517.12" width="50" height="20" as="geometry" />
        </mxCell>
        <mxCell id="bgx9pGF-0ckk_dmSc3HT-146" style="edgeStyle=orthogonalEdgeStyle;rounded=0;orthogonalLoop=1;jettySize=auto;html=1;exitX=0.5;exitY=1;exitDx=0;exitDy=0;entryX=0;entryY=0.5;entryDx=0;entryDy=0;" edge="1" parent="1" source="bgx9pGF-0ckk_dmSc3HT-145" target="bgx9pGF-0ckk_dmSc3HT-108">
          <mxGeometry relative="1" as="geometry" />
        </mxCell>
        <mxCell id="bgx9pGF-0ckk_dmSc3HT-147" style="edgeStyle=orthogonalEdgeStyle;rounded=0;orthogonalLoop=1;jettySize=auto;html=1;exitX=1;exitY=0.5;exitDx=0;exitDy=0;" edge="1" parent="1" source="bgx9pGF-0ckk_dmSc3HT-145" target="bgx9pGF-0ckk_dmSc3HT-2">
          <mxGeometry relative="1" as="geometry" />
        </mxCell>
        <mxCell id="bgx9pGF-0ckk_dmSc3HT-145" value="image" style="rounded=0;whiteSpace=wrap;html=1;" vertex="1" parent="1">
          <mxGeometry x="-50" y="414.84" width="90" height="60.3" as="geometry" />
        </mxCell>
        <mxCell id="bgx9pGF-0ckk_dmSc3HT-148" value="" style="edgeStyle=orthogonalEdgeStyle;rounded=0;orthogonalLoop=1;jettySize=auto;html=1;" edge="1" parent="1" source="bgx9pGF-0ckk_dmSc3HT-149" target="bgx9pGF-0ckk_dmSc3HT-151">
          <mxGeometry relative="1" as="geometry" />
        </mxCell>
        <mxCell id="bgx9pGF-0ckk_dmSc3HT-149" value="" style="shape=cube;whiteSpace=wrap;html=1;boundedLbl=1;backgroundOutline=1;darkOpacity=0.05;darkOpacity2=0.1;direction=east;" vertex="1" parent="1">
          <mxGeometry x="85" y="910" width="30" height="190" as="geometry" />
        </mxCell>
        <mxCell id="bgx9pGF-0ckk_dmSc3HT-150" value="" style="edgeStyle=orthogonalEdgeStyle;rounded=0;orthogonalLoop=1;jettySize=auto;html=1;" edge="1" parent="1" source="bgx9pGF-0ckk_dmSc3HT-151" target="bgx9pGF-0ckk_dmSc3HT-154">
          <mxGeometry relative="1" as="geometry" />
        </mxCell>
        <mxCell id="bgx9pGF-0ckk_dmSc3HT-151" value="" style="shape=cube;whiteSpace=wrap;html=1;boundedLbl=1;backgroundOutline=1;darkOpacity=0.05;darkOpacity2=0.1;direction=east;" vertex="1" parent="1">
          <mxGeometry x="139" y="924.99" width="40" height="160" as="geometry" />
        </mxCell>
        <mxCell id="bgx9pGF-0ckk_dmSc3HT-152" value="" style="edgeStyle=orthogonalEdgeStyle;rounded=0;orthogonalLoop=1;jettySize=auto;html=1;" edge="1" parent="1" source="bgx9pGF-0ckk_dmSc3HT-154" target="bgx9pGF-0ckk_dmSc3HT-157">
          <mxGeometry relative="1" as="geometry" />
        </mxCell>
        <mxCell id="bgx9pGF-0ckk_dmSc3HT-202" style="edgeStyle=orthogonalEdgeStyle;rounded=0;orthogonalLoop=1;jettySize=auto;html=1;exitX=0;exitY=0;exitDx=10;exitDy=0;exitPerimeter=0;entryX=0.5;entryY=0;entryDx=0;entryDy=0;" edge="1" parent="1" source="bgx9pGF-0ckk_dmSc3HT-151" target="bgx9pGF-0ckk_dmSc3HT-177">
          <mxGeometry relative="1" as="geometry" />
        </mxCell>
        <mxCell id="bgx9pGF-0ckk_dmSc3HT-154" value="" style="shape=cube;whiteSpace=wrap;html=1;boundedLbl=1;backgroundOutline=1;darkOpacity=0.05;darkOpacity2=0.1;direction=east;" vertex="1" parent="1">
          <mxGeometry x="205" y="937.5" width="40" height="135" as="geometry" />
        </mxCell>
        <mxCell id="bgx9pGF-0ckk_dmSc3HT-155" value="" style="edgeStyle=orthogonalEdgeStyle;rounded=0;orthogonalLoop=1;jettySize=auto;html=1;" edge="1" parent="1" source="bgx9pGF-0ckk_dmSc3HT-157" target="bgx9pGF-0ckk_dmSc3HT-159">
          <mxGeometry relative="1" as="geometry" />
        </mxCell>
        <mxCell id="bgx9pGF-0ckk_dmSc3HT-207" style="edgeStyle=orthogonalEdgeStyle;rounded=0;orthogonalLoop=1;jettySize=auto;html=1;exitX=0;exitY=0;exitDx=20;exitDy=0;exitPerimeter=0;entryX=0.5;entryY=0;entryDx=0;entryDy=0;" edge="1" parent="1" source="bgx9pGF-0ckk_dmSc3HT-154" target="bgx9pGF-0ckk_dmSc3HT-205">
          <mxGeometry relative="1" as="geometry">
            <Array as="points">
              <mxPoint x="225" y="900" />
              <mxPoint x="540" y="900" />
            </Array>
          </mxGeometry>
        </mxCell>
        <mxCell id="bgx9pGF-0ckk_dmSc3HT-208" style="edgeStyle=orthogonalEdgeStyle;rounded=0;orthogonalLoop=1;jettySize=auto;html=1;exitX=0;exitY=0;exitDx=15;exitDy=0;exitPerimeter=0;entryX=0.5;entryY=0;entryDx=0;entryDy=0;" edge="1" parent="1" source="bgx9pGF-0ckk_dmSc3HT-157" target="bgx9pGF-0ckk_dmSc3HT-206">
          <mxGeometry relative="1" as="geometry" />
        </mxCell>
        <mxCell id="bgx9pGF-0ckk_dmSc3HT-157" value="" style="shape=cube;whiteSpace=wrap;html=1;boundedLbl=1;backgroundOutline=1;darkOpacity=0.05;darkOpacity2=0.1;direction=east;" vertex="1" parent="1">
          <mxGeometry x="275" y="949.38" width="50" height="111.25" as="geometry" />
        </mxCell>
        <mxCell id="bgx9pGF-0ckk_dmSc3HT-210" style="edgeStyle=orthogonalEdgeStyle;rounded=0;orthogonalLoop=1;jettySize=auto;html=1;exitX=0;exitY=0;exitDx=15;exitDy=0;exitPerimeter=0;entryX=0.5;entryY=0;entryDx=0;entryDy=0;" edge="1" parent="1" source="bgx9pGF-0ckk_dmSc3HT-159" target="bgx9pGF-0ckk_dmSc3HT-209">
          <mxGeometry relative="1" as="geometry">
            <Array as="points">
              <mxPoint x="360" y="890" />
              <mxPoint x="708" y="890" />
            </Array>
          </mxGeometry>
        </mxCell>
        <mxCell id="bgx9pGF-0ckk_dmSc3HT-159" value="" style="shape=cube;whiteSpace=wrap;html=1;boundedLbl=1;backgroundOutline=1;darkOpacity=0.05;darkOpacity2=0.1;direction=east;" vertex="1" parent="1">
          <mxGeometry x="345" y="959.7" width="50" height="90.62" as="geometry" />
        </mxCell>
        <mxCell id="bgx9pGF-0ckk_dmSc3HT-204" style="edgeStyle=orthogonalEdgeStyle;rounded=0;orthogonalLoop=1;jettySize=auto;html=1;exitX=1;exitY=0.5;exitDx=0;exitDy=0;entryX=0.5;entryY=0;entryDx=0;entryDy=0;" edge="1" parent="1" source="bgx9pGF-0ckk_dmSc3HT-177" target="bgx9pGF-0ckk_dmSc3HT-201">
          <mxGeometry relative="1" as="geometry" />
        </mxCell>
        <mxCell id="bgx9pGF-0ckk_dmSc3HT-177" value="+" style="ellipse;whiteSpace=wrap;html=1;aspect=fixed;" vertex="1" parent="1">
          <mxGeometry x="435" y="937.5" width="20.62" height="20.62" as="geometry" />
        </mxCell>
        <mxCell id="bgx9pGF-0ckk_dmSc3HT-182" style="edgeStyle=orthogonalEdgeStyle;rounded=0;orthogonalLoop=1;jettySize=auto;html=1;exitX=1;exitY=0.5;exitDx=0;exitDy=0;entryX=0;entryY=0.5;entryDx=0;entryDy=0;" edge="1" parent="1" source="bgx9pGF-0ckk_dmSc3HT-183" target="bgx9pGF-0ckk_dmSc3HT-185">
          <mxGeometry relative="1" as="geometry" />
        </mxCell>
        <mxCell id="bgx9pGF-0ckk_dmSc3HT-183" value="depth estimator" style="rounded=1;whiteSpace=wrap;html=1;" vertex="1" parent="1">
          <mxGeometry x="204" y="1126.06" width="100" height="42.88" as="geometry" />
        </mxCell>
        <mxCell id="bgx9pGF-0ckk_dmSc3HT-203" style="edgeStyle=orthogonalEdgeStyle;rounded=0;orthogonalLoop=1;jettySize=auto;html=1;exitX=1;exitY=0.5;exitDx=0;exitDy=0;entryX=0.5;entryY=1;entryDx=0;entryDy=0;" edge="1" parent="1" source="bgx9pGF-0ckk_dmSc3HT-185" target="bgx9pGF-0ckk_dmSc3HT-177">
          <mxGeometry relative="1" as="geometry" />
        </mxCell>
        <mxCell id="bgx9pGF-0ckk_dmSc3HT-235" style="edgeStyle=orthogonalEdgeStyle;rounded=0;orthogonalLoop=1;jettySize=auto;html=1;exitX=1;exitY=0.5;exitDx=0;exitDy=0;" edge="1" parent="1" source="bgx9pGF-0ckk_dmSc3HT-185">
          <mxGeometry relative="1" as="geometry">
            <mxPoint x="540" y="960" as="targetPoint" />
          </mxGeometry>
        </mxCell>
        <mxCell id="bgx9pGF-0ckk_dmSc3HT-236" style="edgeStyle=orthogonalEdgeStyle;rounded=0;orthogonalLoop=1;jettySize=auto;html=1;exitX=1;exitY=0.5;exitDx=0;exitDy=0;entryX=0.5;entryY=1;entryDx=0;entryDy=0;" edge="1" parent="1" source="bgx9pGF-0ckk_dmSc3HT-185" target="bgx9pGF-0ckk_dmSc3HT-206">
          <mxGeometry relative="1" as="geometry" />
        </mxCell>
        <mxCell id="bgx9pGF-0ckk_dmSc3HT-185" value="DASPP" style="rounded=0;whiteSpace=wrap;html=1;" vertex="1" parent="1">
          <mxGeometry x="345" y="1091.06" width="52" height="35" as="geometry" />
        </mxCell>
        <mxCell id="bgx9pGF-0ckk_dmSc3HT-198" style="edgeStyle=orthogonalEdgeStyle;rounded=0;orthogonalLoop=1;jettySize=auto;html=1;exitX=1;exitY=0.5;exitDx=0;exitDy=0;" edge="1" parent="1" target="bgx9pGF-0ckk_dmSc3HT-149">
          <mxGeometry relative="1" as="geometry">
            <mxPoint x="35" y="1004.99" as="sourcePoint" />
          </mxGeometry>
        </mxCell>
        <mxCell id="bgx9pGF-0ckk_dmSc3HT-200" style="edgeStyle=orthogonalEdgeStyle;rounded=0;orthogonalLoop=1;jettySize=auto;html=1;exitX=0.5;exitY=1;exitDx=0;exitDy=0;entryX=0.008;entryY=0.631;entryDx=0;entryDy=0;entryPerimeter=0;" edge="1" parent="1" source="bgx9pGF-0ckk_dmSc3HT-199" target="bgx9pGF-0ckk_dmSc3HT-183">
          <mxGeometry relative="1" as="geometry" />
        </mxCell>
        <mxCell id="bgx9pGF-0ckk_dmSc3HT-199" value="image" style="rounded=0;whiteSpace=wrap;html=1;" vertex="1" parent="1">
          <mxGeometry x="-50" y="970.3199999999999" width="90" height="60.3" as="geometry" />
        </mxCell>
        <mxCell id="bgx9pGF-0ckk_dmSc3HT-237" style="edgeStyle=orthogonalEdgeStyle;rounded=0;orthogonalLoop=1;jettySize=auto;html=1;exitX=0.5;exitY=1;exitDx=0;exitDy=0;entryX=0.173;entryY=-0.058;entryDx=0;entryDy=0;entryPerimeter=0;dashed=1;" edge="1" parent="1" source="bgx9pGF-0ckk_dmSc3HT-201" target="bgx9pGF-0ckk_dmSc3HT-222">
          <mxGeometry relative="1" as="geometry" />
        </mxCell>
        <mxCell id="bgx9pGF-0ckk_dmSc3HT-201" value="DASPP" style="rounded=0;whiteSpace=wrap;html=1;" vertex="1" parent="1">
          <mxGeometry x="460" y="1010" width="52" height="35" as="geometry" />
        </mxCell>
        <mxCell id="bgx9pGF-0ckk_dmSc3HT-213" style="edgeStyle=orthogonalEdgeStyle;rounded=0;orthogonalLoop=1;jettySize=auto;html=1;exitX=1;exitY=0.5;exitDx=0;exitDy=0;entryX=0.5;entryY=0;entryDx=0;entryDy=0;" edge="1" parent="1" source="bgx9pGF-0ckk_dmSc3HT-205" target="bgx9pGF-0ckk_dmSc3HT-211">
          <mxGeometry relative="1" as="geometry" />
        </mxCell>
        <mxCell id="bgx9pGF-0ckk_dmSc3HT-205" value="+" style="ellipse;whiteSpace=wrap;html=1;aspect=fixed;" vertex="1" parent="1">
          <mxGeometry x="529.38" y="939.08" width="20.62" height="20.62" as="geometry" />
        </mxCell>
        <mxCell id="bgx9pGF-0ckk_dmSc3HT-214" style="edgeStyle=orthogonalEdgeStyle;rounded=0;orthogonalLoop=1;jettySize=auto;html=1;exitX=1;exitY=0.5;exitDx=0;exitDy=0;entryX=0.5;entryY=0;entryDx=0;entryDy=0;" edge="1" parent="1" source="bgx9pGF-0ckk_dmSc3HT-206" target="bgx9pGF-0ckk_dmSc3HT-212">
          <mxGeometry relative="1" as="geometry" />
        </mxCell>
        <mxCell id="bgx9pGF-0ckk_dmSc3HT-206" value="+" style="ellipse;whiteSpace=wrap;html=1;aspect=fixed;" vertex="1" parent="1">
          <mxGeometry x="615" y="939.08" width="20.62" height="20.62" as="geometry" />
        </mxCell>
        <mxCell id="bgx9pGF-0ckk_dmSc3HT-216" style="edgeStyle=orthogonalEdgeStyle;rounded=0;orthogonalLoop=1;jettySize=auto;html=1;exitX=1;exitY=0.5;exitDx=0;exitDy=0;entryX=0.5;entryY=0;entryDx=0;entryDy=0;" edge="1" parent="1" source="bgx9pGF-0ckk_dmSc3HT-209" target="bgx9pGF-0ckk_dmSc3HT-215">
          <mxGeometry relative="1" as="geometry" />
        </mxCell>
        <mxCell id="bgx9pGF-0ckk_dmSc3HT-209" value="+" style="ellipse;whiteSpace=wrap;html=1;aspect=fixed;" vertex="1" parent="1">
          <mxGeometry x="698" y="939.08" width="20.62" height="20.62" as="geometry" />
        </mxCell>
        <mxCell id="bgx9pGF-0ckk_dmSc3HT-238" style="edgeStyle=orthogonalEdgeStyle;rounded=0;orthogonalLoop=1;jettySize=auto;html=1;exitX=0.5;exitY=1;exitDx=0;exitDy=0;entryX=0.623;entryY=0.039;entryDx=0;entryDy=0;entryPerimeter=0;dashed=1;" edge="1" parent="1" source="bgx9pGF-0ckk_dmSc3HT-211" target="bgx9pGF-0ckk_dmSc3HT-222">
          <mxGeometry relative="1" as="geometry" />
        </mxCell>
        <mxCell id="bgx9pGF-0ckk_dmSc3HT-211" value="DASPP" style="rounded=0;whiteSpace=wrap;html=1;" vertex="1" parent="1">
          <mxGeometry x="550" y="1010" width="52" height="35" as="geometry" />
        </mxCell>
        <mxCell id="bgx9pGF-0ckk_dmSc3HT-239" style="edgeStyle=orthogonalEdgeStyle;rounded=0;orthogonalLoop=1;jettySize=auto;html=1;exitX=0.5;exitY=1;exitDx=0;exitDy=0;entryX=0.815;entryY=0.019;entryDx=0;entryDy=0;entryPerimeter=0;dashed=1;" edge="1" parent="1" source="bgx9pGF-0ckk_dmSc3HT-212" target="bgx9pGF-0ckk_dmSc3HT-222">
          <mxGeometry relative="1" as="geometry" />
        </mxCell>
        <mxCell id="bgx9pGF-0ckk_dmSc3HT-212" value="DASPP" style="rounded=0;whiteSpace=wrap;html=1;" vertex="1" parent="1">
          <mxGeometry x="635.62" y="1010" width="52" height="35" as="geometry" />
        </mxCell>
        <mxCell id="bgx9pGF-0ckk_dmSc3HT-215" value="DASPP" style="rounded=0;whiteSpace=wrap;html=1;" vertex="1" parent="1">
          <mxGeometry x="723.69" y="1010" width="52" height="35" as="geometry" />
        </mxCell>
        <mxCell id="bgx9pGF-0ckk_dmSc3HT-240" style="edgeStyle=orthogonalEdgeStyle;rounded=0;orthogonalLoop=1;jettySize=auto;html=1;exitX=1;exitY=0.5;exitDx=0;exitDy=0;entryX=0.5;entryY=1;entryDx=0;entryDy=0;" edge="1" parent="1" source="bgx9pGF-0ckk_dmSc3HT-222" target="bgx9pGF-0ckk_dmSc3HT-209">
          <mxGeometry relative="1" as="geometry" />
        </mxCell>
        <mxCell id="bgx9pGF-0ckk_dmSc3HT-222" value="depth estimator" style="rounded=1;whiteSpace=wrap;html=1;" vertex="1" parent="1">
          <mxGeometry x="512" y="1126.0599999999997" width="100" height="42.88" as="geometry" />
        </mxCell>
      </root>
    </mxGraphModel>
  </diagram>
</mxfile>
